<svg width="158" height="41" viewBox="0 0 158 41" fill="none" xmlns="http://www.w3.org/2000/svg">
<path d="M13.962 0.640078C13.1368 0.194835 16.0183 0.679367 15.1931 0.234124C15.2979 -0.250404 16.1624 0.116271 15.5992 0.443655H17.8519C19.2927 0.823421 15.7825 0.443652 16.6208 0.849608C16.3457 0.980562 15.036 0.391266 13.9489 0.640078H13.962ZM88.0678 1.25556C87.151 1.54366 86.3128 0.705556 85.8019 1.25556C86.6533 1.38651 87.5308 1.88414 88.0678 1.25556ZM120.707 1.46509C121.637 1.22938 123.523 1.94961 123.785 1.05913C122.593 1.43889 121.44 0.757942 120.707 1.46509ZM29.9672 1.46509C29.5873 1.42581 28.605 0.941277 28.33 1.46509C28.8801 1.34723 29.6135 2.06748 29.9672 1.46509ZM59.3187 1.67461C61.8728 2.09366 64.8066 2.10676 67.5309 1.67461C65.0817 1.50437 61.7156 1.21627 59.3187 1.67461ZM95.4548 1.87105C100.222 2.09367 93.4116 0.993656 95.4548 1.87105ZM43.3135 2.69605C44.1518 2.64367 45.2913 2.89248 45.5663 2.2901C44.715 2.04128 43.4314 2.44724 43.3135 2.69605ZM44.5447 3.7175C45.0424 3.58654 46.0378 3.9794 46.1819 3.50797C45.6056 3.25915 44.9376 3.27225 44.5447 3.7175ZM122.554 3.92702C123.667 3.7044 124.675 4.58179 125.226 3.7175C124.374 3.49487 122.541 3.50797 122.554 3.92702ZM134.053 3.7175C131.761 4.33298 131.342 3.45559 134.053 3.7175ZM21.9646 4.75202C22.9993 5.04012 24.7281 4.5425 25.8676 5.15798C25.2913 5.51156 24.1126 5.26275 25.252 5.77347C23.0255 5.14489 19.5808 5.31513 17.4459 5.98299C20.812 5.45917 23.4577 7.22705 26.2737 5.77347C26.6666 5.93061 27.5179 6.70324 27.9108 6.17942C26.5094 5.82585 27.8192 5.13179 26.8892 4.33297C25.1211 4.33297 23.2219 4.21512 21.9646 4.73893V4.75202ZM21.755 4.5425C20.9299 4.67345 19.5677 4.28059 19.0831 4.75202C19.9083 4.62107 21.2704 5.01393 21.755 4.5425ZM6.77143 6.38894C7.40011 6.25799 8.53959 6.65085 8.82774 6.17942C8.18596 6.41514 8.33003 5.85204 8.00259 5.77347C8.09428 6.36276 6.22133 6.02227 6.77143 6.38894ZM44.3352 7.00443C44.9245 7.04371 45.383 6.95205 45.5663 6.59847C45.1472 6.71633 44.1387 6.27109 44.3352 7.00443ZM39.2009 8.03896C40.1832 8.06515 41.0608 7.97348 41.6633 7.61991C41.2441 7.633 39.4629 7.26633 39.2009 8.03896ZM128.303 9.88541C126.431 9.6366 124.492 8.53658 124.61 9.67588C123.706 9.83303 122.933 9.04731 122.763 10.0818C126.417 10.2259 129.954 10.5009 133.438 10.4878C132.311 9.03421 130.425 10.1473 128.303 9.87231V9.88541ZM120.301 9.46636C117.197 9.13898 120.93 10.4223 121.742 9.87231C121.375 9.9116 121.008 9.53184 120.301 9.46636ZM115.573 10.5009C116.516 10.6057 117.76 9.81993 118.245 10.7104C118.271 9.42707 116.136 10.0033 115.573 10.5009ZM11.6961 10.2914C11.7878 9.97708 8.78845 9.92469 8.21215 10.2914C9.94103 10.4354 9.78386 10.3307 11.6961 10.2914ZM0 12.3473C1.03471 12.2819 2.03012 12.1902 2.6719 11.7319C1.5979 11.7449 0.74656 11.9938 0 12.3473ZM9.44332 18.0831C12.4165 17.7557 10.8186 19.0129 9.44332 18.0831ZM6.56186 19.5236C7.93711 19.5498 9.67908 20.0343 11.6961 19.5236C10.4518 19.3534 8.10737 18.9998 6.56186 19.5236ZM12.5212 19.9427C13.2154 20.1653 13.9358 20.1915 14.368 19.7331C13.7524 19.7331 12.7308 19.1176 12.5212 19.9427ZM17.8519 20.1391C17.2233 19.9819 16.4767 19.7855 15.7956 20.1391C16.11 20.3879 17.5638 20.545 17.8519 20.1391ZM38.3889 20.1391C37.6947 20.0081 35.9658 20.0212 35.1014 20.3486C35.848 20.8724 37.472 20.8069 38.3889 20.1391ZM33.6607 21.37C34.3024 21.8153 35.5729 21.4617 36.123 21.1605C35.4157 20.9903 34.6823 21.0034 33.6607 21.37ZM38.1793 22.601C38.5853 22.182 38.5853 22.4046 38.1793 21.9855C38.3365 21.9462 38.5853 21.9855 38.5853 21.776H37.5637C37.5244 22.2867 38.0221 22.2736 38.1793 22.601ZM14.5776 22.8105C15.7694 22.8629 16.3719 22.8367 17.0399 23.0201C17.1447 22.2212 14.1322 22.6141 14.5776 22.8105ZM18.8866 22.8105C17.4066 23.6224 17.2887 21.9593 18.8866 22.8105ZM40.2356 24.4474C43.9684 24.3034 47.1249 24.7617 50.2945 24.2379C47.8322 23.9498 43.2874 23.8843 40.2356 24.4474ZM9.23376 24.657C8.5003 24.1855 7.93711 24.7486 7.17745 24.4474C7.41321 25.3248 8.55269 25.1022 9.23376 24.657ZM14.5776 25.482C14.6823 24.8403 13.8703 24.9451 14.368 24.4605C13.1368 24.9844 11.7747 24.107 10.6745 24.6701C11.9973 25.4558 12.6915 24.9058 14.5776 25.4951V25.482ZM38.7949 25.0629C39.5546 24.932 40.8381 25.3248 41.2572 24.8534C40.7595 24.7879 38.7949 24.6308 38.7949 25.0629ZM9.44332 28.1534C9.83625 28.0618 10.6876 28.4284 10.4649 27.7475H9.44332V28.1534ZM44.9507 30.1963C44.1387 30.3404 42.6718 29.8427 42.4884 30.6023C42.842 30.1963 45.9462 30.6023 44.9507 30.1963ZM7.59657 31.2308C9.87554 31.0344 11.4472 31.7154 12.7308 31.0213C10.6221 31.2701 8.5134 30.5237 7.59657 31.2308ZM45.1603 30.8118C44.4006 30.9428 43.1171 30.5499 42.698 31.0213C43.4576 30.8904 44.7412 31.2832 45.1603 30.8118ZM52.7569 32.8678C53.7392 32.5797 54.6822 33.3916 55.2192 32.8678C54.9049 32.5404 52.3901 32.5404 52.7569 32.8678ZM55.6252 32.8678C55.8348 32.8416 57.4327 33.5618 57.6815 32.6582C57.0529 32.7892 55.9134 32.3963 55.6252 32.8678ZM43.5231 32.8678C42.7635 32.9987 41.4799 32.6059 41.0608 33.0773C41.493 32.9594 43.3135 33.5225 43.5231 32.8678ZM24.2173 33.2737C23.6149 33.4571 23.5887 33.4571 22.9862 33.2737C22.698 33.9154 24.5186 33.9154 24.2173 33.2737ZM32.2199 34.5047C33.6738 34.5309 35.992 35.2511 36.529 33.8892C35.7301 33.3916 33.8571 33.9547 33.032 33.4833C33.307 34.3606 32.1544 34.2297 32.2068 34.5047H32.2199ZM45.9854 33.6928C45.0948 33.8237 43.6672 33.4309 43.1171 33.9023C43.6803 34.1511 45.7497 34.413 45.9854 33.6928ZM16.6208 34.5047C17.3804 34.3737 18.664 34.7666 19.0831 34.2952C18.6247 34.0333 16.7648 33.7975 16.6208 34.5047ZM16.8303 35.3297C18.7164 35.1464 21.0215 36.2333 21.349 34.9237C20.1964 35.4737 18.258 34.5309 16.8303 35.3297ZM49.0634 37.3857C47.7667 37.5166 45.92 37.1107 44.9638 37.5952C46.2605 37.4642 48.1073 37.8702 49.0634 37.3857ZM25.0425 38.1976C24.5972 37.4773 22.423 37.3988 21.5454 37.7916C23.0648 38.0405 23.8768 38.1845 25.0425 38.1976ZM27.0988 38.6166C25.6974 38.5119 24.7281 38.5773 23.8113 38.4071C24.3614 38.9964 26.4963 39.0226 27.0988 38.6166ZM27.2953 38.6166C29.3909 38.9833 34.5906 38.944 37.3542 38.6166C34.7609 38.5643 30.5566 38.6559 27.2953 38.6166ZM98.5328 38.6166C97.7731 38.7607 97.6552 38.2631 96.8956 38.4071C96.686 39.1143 98.4411 38.8916 98.5328 38.6166ZM101.414 38.6166C100.72 38.7476 99.502 38.3547 99.1614 38.8262C99.8556 38.6952 101.074 39.0881 101.414 38.6166ZM108.382 39.0226C110.622 38.7214 113.281 39.8607 114.957 38.8131C112.351 38.8786 110.347 38.4595 108.382 39.0226ZM62.6062 39.6381H64.453C64.4006 38.7476 62.8944 39.4547 62.6062 39.6381ZM37.7733 39.6381C37.1446 39.769 36.0051 39.3762 35.717 39.8476C36.3457 39.7166 37.4851 40.1095 37.7733 39.6381ZM114.132 1.25556C113.804 1.66152 115.926 1.37342 116.594 1.46509C116.817 1.70081 117.537 1.54366 117.825 1.25556C116.725 1.4258 115.664 1.16389 114.132 1.25556ZM43.9291 7.00443C43.1433 5.34131 39.8034 6.53299 38.7949 5.56394C39.2664 5.76037 39.7772 5.74728 40.4321 5.35442C40.1047 5.34132 39.7248 5.3806 39.8165 4.94845C43.2612 5.74727 47.7929 4.39846 50.2814 5.35442C50.0457 5.38061 49.7051 5.31513 49.6659 5.56394C50.5565 5.35441 51.971 5.86513 53.1498 5.56394C52.9009 5.53775 52.6652 5.49846 52.7438 5.15798C53.1629 5.27584 54.0928 4.90917 54.1845 5.36751C54.0273 5.41989 53.7785 5.36751 53.7785 5.57704C55.8348 6.28419 60.4713 5.02703 62.3967 6.40204C60.7988 6.99133 59.083 5.61632 57.6685 7.01752C59.0568 7.20086 60.7595 7.0699 61.9775 7.42348C61.1655 7.86872 59.6462 7.01753 58.8996 7.82944C60.3403 8.5104 62.9991 7.97349 64.6494 8.44492C61.2048 8.47111 56.7123 10.0949 53.7654 8.65444C54.9049 8.4842 56.2277 8.5104 57.2493 8.24849H58.8865C60.6416 7.72468 54.4988 8.47111 54.5774 7.63301C52.6914 8.24849 50.0981 8.05206 47.1904 8.05206C45.7759 8.05206 41.6633 8.01277 44.3221 8.26158C44.99 8.61515 46.1819 8.45802 46.5748 9.08659C47.0333 8.75921 49.7968 7.99968 48.6312 9.08659C49.1943 9.21755 50.2552 8.82468 50.4779 9.29611C49.6528 9.25683 49.5611 9.3485 50.0719 9.70208C49.1027 9.80684 46.5486 10.1866 46.5879 9.70208C46.5879 9.58422 49.4039 9.96398 47.6095 9.49255C46.4177 9.17826 46.1033 9.36159 44.5316 9.49255C44.2042 9.3354 44.2304 8.83778 43.7065 8.87706C40.3011 8.58897 37.7471 8.73301 34.6692 8.87706C34.5906 8.56277 34.4203 8.85088 34.6692 9.08659C35.4943 9.21755 36.8565 8.82468 37.3411 9.29611C36.4635 9.17826 33.5297 10.0033 33.6476 8.27468C35.3241 8.4842 36.2278 8.07825 34.0536 8.06516C34.0536 7.80325 34.3155 7.77706 34.2631 7.44967C31.5258 7.52825 28.9063 7.12228 26.457 7.65919C26.7321 8.06515 27.8847 7.59372 27.8977 8.27468C26.7452 8.13063 26.0903 8.34016 25.2259 8.48421C25.4616 8.52349 25.8021 8.44492 25.8414 8.69373C24.0078 8.64135 22.8552 9.25684 20.9168 9.09969C20.4583 9.38779 21.1787 9.59731 20.7072 9.71517C18.4151 9.64969 19.0176 9.23064 17.8388 9.50565C18.0353 9.46636 18.1008 9.85922 17.8388 9.9116C17.4066 10.0033 15.979 9.66278 14.9705 10.3176C16.6339 10.4485 18.5068 9.9116 19.6856 10.5271C18.0615 10.3568 19.4498 11.1426 18.4544 11.1426C18.8997 11.3914 19.607 11.3652 19.8952 11.758C20.0785 11.1033 19.3582 11.339 19.2796 10.933C20.3274 10.7759 20.9037 11.0902 20.9168 11.9545C14.643 12.164 11.5389 12.7271 7.36082 12.9759C8.21216 14.1676 11.8402 12.5961 12.7046 13.8009C11.9842 13.6307 10.3863 13.6307 9.83625 14.0105C11.015 13.5914 12.9011 15.4117 12.2986 14.22C12.9797 14.4295 14.5383 13.7616 14.5514 14.6259C13.6607 15.6736 11.0805 14.1283 10.4518 15.6474C11.0936 15.045 12.5081 15.4247 13.3202 15.2414C13.3988 15.595 13.019 15.7652 13.3202 15.8569C15.311 16.0926 16.5553 15.8176 18.664 16.0664C16.3719 15.9879 19.7642 16.7343 20.7203 16.6819C20.7727 16.6819 21.2573 16.0795 21.3359 16.0664C22.1217 15.9355 22.7504 17.1533 23.1826 16.4724C22.8552 16.4462 22.4754 16.4986 22.5671 16.0664C23.2743 16.551 23.8899 15.8962 24.6234 16.6819C19.8035 17.2712 15.1669 16.7998 11.4865 17.5069C12.3117 17.8212 14.8788 17.3105 16.2016 18.1224C14.8395 18.5807 13.3333 17.7688 12.9142 18.9474C16.4505 19.6807 21.624 18.5283 24.8198 19.1569C23.4053 19.1831 22.4754 19.7724 21.7419 19.9819C23.7327 20.1653 25.1866 19.6545 26.457 20.3879C26.1165 20.4141 24.5972 20.27 25.2259 20.5974C25.5271 20.7153 26.2868 20.3617 26.2475 20.8069C24.9246 20.8462 22.6194 19.6284 22.96 20.8069C22.0693 20.7415 20.812 21.0427 20.4976 20.401C20.8382 20.3748 22.3575 20.5188 21.7288 20.1915C19.1617 20.0867 14.4466 20.5843 12.0759 20.8069C15.9659 21.0819 19.3582 21.1343 23.5756 21.632C21.2966 21.7891 19.5939 21.37 17.4197 21.4224C16.8041 21.7105 17.4721 22.0117 16.8041 22.2474C16.8434 21.9855 17.1316 21.8284 16.5946 21.8415C15.7694 21.5534 15.9397 22.2867 15.3634 22.2474H14.3418C13.8572 22.0772 13.3988 22.5355 14.1322 22.457C18.6509 22.457 21.1918 22.3522 24.5972 22.6665C23.8506 22.6665 22.9469 22.601 23.772 23.0724C23.235 23.1379 21.8991 22.8498 22.5409 23.4784C25.514 23.6748 31.7615 24.382 34.237 23.0724C33.7262 23.2165 33.3987 23.2689 33.0058 22.8629C33.7392 21.8022 35.8218 23.2558 36.9089 22.457C35.992 22.1165 34.237 21.4748 33.2153 22.2474C32.4164 21.1605 31.0935 21.0034 30.1374 21.0165C30.1374 21.8415 31.5127 21.2915 31.7746 21.8415C31.2245 21.8415 30.5958 21.7629 30.3339 22.051C30.2422 20.4272 27.5834 21.37 26.6404 20.6105C27.6882 20.3879 29.011 20.9641 29.5087 20.6105C29.3123 20.3879 28.7491 20.545 28.8932 19.995C30.6351 19.5891 34.2239 20.0605 36.4897 19.5891C36.1754 19.5498 35.7301 19.6676 35.6646 19.3796C39.3319 19.026 44.0208 19.3795 46.9547 19.5891C46.6272 19.6153 46.2474 19.5629 46.3391 19.995C48.2906 19.6546 50.6482 19.7855 52.4949 19.7855C51.696 20.5581 49.417 19.8641 48.3954 20.401C48.6311 20.4272 48.9717 20.3617 49.011 20.6105C46.7582 20.126 45.3699 20.8724 43.0647 20.82C43.3005 20.7808 43.379 20.5974 43.4707 20.4141C41.0346 21.3308 38.3758 20.4272 36.2802 21.4355C38.8866 21.7629 39.3057 21.226 41.4144 21.8415C40.2094 21.7105 40.694 22.0772 40.1832 22.457C42.9337 23.0724 47.0856 21.6974 48.3954 22.8629C48.212 22.7058 47.7405 23.0593 47.7798 23.0724C50.3469 23.5963 51.9317 23.0986 54.5512 23.6879C53.3201 23.8582 51.565 24.1332 51.0673 23.8974C51.3423 25.0629 54.2893 23.557 54.5512 24.7225C51.5912 24.5784 48.8407 24.6046 46.1295 24.932C45.1734 25.0498 44.178 25.6653 43.2612 25.757C43.2612 25.757 43.4183 25.3379 43.4707 25.351C41.6502 24.8403 38.2317 25.5998 36.0837 25.9665C36.5814 25.4558 34.0405 26.1368 34.4465 26.176C35.8087 26.3987 36.7386 26.176 38.14 26.582C35.7432 26.582 34.237 26.7391 32.3902 26.582C35.1669 27.2761 39.7379 27.2368 42.4491 26.7915C42.0955 26.3987 40.7726 26.9618 40.8119 26.176C43.235 25.9665 44.6757 25.9796 46.7582 26.3856C45.6973 26.8046 45.1472 26.4903 44.2959 27.0011C45.8414 27.1582 47.6488 27.0665 49.011 27.407C41.231 27.682 35.7956 28.0094 28.068 27.0011C29.5218 27.0403 31.5913 27.001 32.1675 26.7915C32.0366 26.4379 31.552 26.451 31.3424 26.176C31.7615 26.0451 32.77 26.5034 32.5736 25.7701C31.6175 25.1939 29.7183 25.8356 28.6705 24.9451C29.0372 24.9058 29.6921 25.1546 29.4956 24.5391C26.7845 24.4474 30.1243 24.4213 29.9017 24.1332C25.5533 23.5963 22.8028 24.4474 19.6332 24.9582C18.795 25.0891 17.6031 24.3427 17.3804 25.5737C17.6293 25.5998 17.865 25.6391 17.7865 25.9796C20.5893 25.5868 24.3483 25.7701 26.2082 26.3856C25.5795 26.2415 25.4616 26.5951 24.977 26.5951C23.4839 25.901 21.2966 25.9141 19.8428 26.1891C18.5592 26.1891 19.8428 26.5296 20.4583 26.3987H22.7242C22.6718 26.6606 22.3968 26.8177 22.9338 26.8046C23.8899 26.9356 25.3961 26.5427 26.0117 27.0141C24.1388 27.2499 19.7904 26.9749 18.4151 28.0356C20.943 28.2975 23.0779 27.6296 24.3745 28.6511C23.8375 28.232 24.6627 29.7249 24.7805 29.2665C24.2304 29.5154 22.5147 29.4368 21.087 29.4761C19.8821 29.5023 17.4721 29.4761 19.4498 29.6856C20.5107 30.157 22.8028 29.1356 23.7589 30.0916C22.7766 30.0654 21.8991 30.1439 21.2966 30.4975C23.8244 30.6285 26.9023 30.2225 29.1027 30.707C25.5926 30.6285 22.9731 31.4273 19.2534 31.113C18.939 31.8463 19.9475 31.2309 19.869 31.7285C18.4544 31.5582 16.9613 31.8725 16.3719 31.3225C17.0399 31.2308 19.1748 31.532 18.8343 31.113C16.8172 31.113 15.9659 31.0344 14.1191 31.113C13.8572 32.1475 11.8533 31.4404 11.2508 32.1344C12.1545 32.4356 12.6653 31.9249 13.3071 32.344C13.0059 32.3832 12.5474 32.2654 12.4819 32.5535C14.6038 31.8463 19.8952 34.3606 21.5193 32.763C21.4669 32.8154 21.0346 32.6713 21.1132 32.5535C22.3837 32.9202 24.3483 32.6059 25.2128 33.3785C24.715 33.9678 23.6018 33.9678 23.1564 34.6095C24.034 34.3868 24.9639 34.688 25.8283 35.0154C24.5972 35.0154 22.7635 34.7404 21.7288 35.4214C23.0517 35.6309 23.8113 35.3428 24.5972 36.2464C23.7196 36.7702 22.2658 35.8011 21.3097 36.4559C21.218 35.9976 20.2226 36.4559 20.0785 36.0499C19.5284 36.5214 18.1008 36.1154 17.2102 36.2595C16.3195 36.2595 17.1709 36.613 17.6162 36.469H19.2534C30.6351 37.5035 40.1701 36.744 52.102 37.0845C52.102 37.3857 52.6783 38.119 52.9271 37.4904C52.6783 37.3857 52.4556 37.2678 52.3116 37.0845C55.0751 37.3071 57.1184 36.5869 58.8865 37.294C56.9743 37.3464 54.7608 36.9273 53.9618 37.7C54.6822 38.2107 56.5683 37.5559 56.8302 38.525C55.1013 38.525 52.9926 38.4464 52.102 38.7345C51.0673 38.8654 49.5087 38.4595 48.8145 38.944H50.0457C60.6809 39.2059 71.578 38.4464 80.2224 38.3285C82.855 38.2892 86.2211 38.7214 87.2034 38.5381C88.9061 38.2107 90.7921 39.219 91.5125 37.9226C92.5341 39.3107 94.7345 38.25 96.4371 38.944C96.28 38.0666 94.5249 38.8 94.1844 38.119C96.686 38.2369 98.2053 37.2809 99.9342 38.119C100.275 38.119 100.052 37.5559 100.34 37.5035C101.309 38.0404 102.934 37.1761 103.824 37.0976C104.165 37.0714 104.898 37.5035 105.055 37.5035C108.592 37.5952 112.979 37.5821 117.983 37.7131C116.463 36.5999 114.08 37.294 111.827 36.4821C115.023 36.8488 119.777 35.644 121.676 37.3071C119.973 37.163 116.869 37.5166 120.235 37.5166C120.235 37.8571 120.799 37.6345 120.851 37.9226C120.694 37.975 120.445 37.9226 120.445 38.1321C120.812 38.0143 121.65 38.3809 121.676 37.9226C121.44 37.8833 121.1 37.9619 121.061 37.7131C122.711 37.7131 125.605 38.6166 126.601 37.9226C126.3 37.8047 125.54 38.1583 125.579 37.7131C126.706 37.5559 129.81 38.8262 129.273 37.7131C129.967 37.7392 131.512 37.5559 130.504 38.119C136.437 38.2107 143.706 37.7131 148.159 39.5595C147.373 39.35 145.893 39.8738 144.872 39.5595C146.024 41.275 149.692 39.8607 151.237 40.7905C151.001 40.8298 150.661 40.7512 150.622 41H152.259C152.77 40.0833 153.673 39.5464 153.896 38.3285C153.713 37.8964 152.743 38.25 152.665 37.7131C154.119 36.9404 154.472 36.0107 155.952 35.0416C154.721 34.4523 156.057 32.5928 155.127 31.7547C155.494 31.6368 155.979 31.6499 156.149 31.3487C155.717 30.3797 155.586 28.7427 154.918 27.8653C155.586 27.7475 155.874 28.0094 156.358 28.0749C157.184 27.3022 157.865 25.351 156.764 24.382C156.607 25.8356 157.249 26.8439 156.358 27.4594C156.345 26.1368 154.616 27.7344 154.302 26.6344C154.341 26.3594 155.153 26.2546 154.302 26.2284C153.922 26.2022 153.948 27.4463 153.071 26.6344C154.145 25.6653 155.166 24.6308 155.743 23.151C155.638 22.4439 154.865 22.3784 154.721 21.7105C154.996 21.2391 155.913 21.3962 156.358 21.095C155.795 20.1653 156.817 20.0212 156.764 19.0391C156.529 18.6593 155.677 18.895 155.939 18.0176C156.568 18.1617 156.686 17.8081 157.17 17.8081C157.066 16.4724 157.406 16.5771 157.996 15.7521C158.074 14.77 157.092 13.8533 156.358 13.0807C156.542 12.6485 157.236 12.7271 157.184 12.0592C156.542 10.6057 154.931 11.2866 154.106 10.2128C152.953 10.9854 150.569 10.5009 150.622 9.38778C150.687 7.97348 153.241 8.62825 154.525 8.36634C154.865 7.76396 154.996 6.38895 155.35 5.28894C154.944 4.75203 153.804 4.37226 154.734 3.65202C153.477 3.36392 152.337 4.2544 151.447 3.65202C152.22 3.24606 152.743 3.86154 153.294 3.24606C147.583 4.09726 140.851 3.90083 136.044 4.07107C132.835 5.51156 126.745 3.69131 123.117 4.2806C122.96 4.30679 123.169 4.72584 122.711 4.68655C120.117 4.51631 116.83 2.277 114.905 4.07107C111.067 4.29369 107.518 3.71749 104.636 4.07107C105.383 4.21512 106.339 4.14964 106.889 4.47702C105.343 4.5425 103.222 4.90917 102.789 3.65202C103.89 3.57344 105.082 3.45558 106.077 3.44248C109.273 3.41629 112.94 4.29368 114.695 3.44248C109.77 3.29844 103.287 2.95796 97.8648 3.23296C96.5681 2.38177 93.2937 3.10201 90.4778 2.82701C89.5609 2.73534 85.2519 1.67462 86.5747 2.82701C80.838 2.2901 75.468 3.29844 71.3816 2.21153C71.6828 2.10676 72.4425 2.44724 72.4032 2.002C71.2113 1.51747 68.4477 1.4389 67.8845 2.002C69.1419 1.97581 70.3338 2.002 71.172 2.40796C67.4916 2.61749 63.1694 2.86629 60.288 2.61748C58.6901 3.21987 52.7045 2.38176 50.2291 3.02343C50.36 3.31153 51.0149 3.04963 51.0542 3.4294C50.1767 3.78297 48.749 3.58654 47.5572 3.63892C47.1118 3.49487 46.2474 3.84845 47.1511 3.84845H47.7667C51.8269 5.36751 55.5205 4.03178 60.288 4.86988C52.8224 4.67345 45.7104 5.48537 38.5329 4.2544C38.8604 4.22821 39.2402 4.28059 39.1485 3.84845H37.9174C37.9829 3.57345 38.2055 3.45558 38.1269 3.02343C35.7956 2.48652 32.4295 1.7139 29.9148 2.61748C30.1243 2.61748 30.1767 2.98415 29.9148 3.02343C25.6712 1.74009 19.9213 3.04963 15.7563 3.4294C18.3496 3.95321 20.7465 4.00559 22.9469 4.04488C22.6456 4.08417 22.1872 3.9794 22.1217 4.2544C24.2042 3.74368 27.5703 4.21512 30.1243 4.46393C29.5087 4.5425 27.4786 4.2675 27.8716 4.67345C30.3339 5.19727 32.4164 4.94845 34.4465 5.69489C34.0405 6.16632 34.4989 5.91751 34.6561 6.31037C34.106 6.55918 33.4511 5.91751 33.4249 6.31037C36.7648 7.72467 39.9868 6.28419 43.8898 7.13539L43.9291 7.00443ZM135.9 37.7916C135.533 37.6345 135.874 37.4119 135.9 37.1762C133.752 37.1762 130.884 37.7916 128.513 36.7702C127.347 37.7261 124.112 36.8881 121.938 37.1762C122.802 36.7178 121.99 36.4035 121.113 36.5607C124.44 35.9321 128.33 36.7571 130.556 36.3511C131.303 36.6654 131.041 37.2154 132.613 36.9666C132.691 36.469 131.683 37.0845 131.997 36.3511C138.52 36.5345 146.732 36.1416 153.346 36.3511C153.7 36.2726 153.726 36.5083 153.752 36.7571C148.578 39.3893 141.349 35.919 135.887 37.7785L135.9 37.7916ZM87.8583 3.31153C87.1379 3.94011 86.1818 3.08891 85.1864 3.31153C84.9899 2.86629 87.3082 3.16748 87.8583 3.31153ZM112.901 4.33297C111.552 5.04012 108.513 3.92702 111.46 4.12345C111.997 4.16274 112.508 4.49011 112.901 4.33297ZM62.6062 5.15798C61.0214 5.85204 60.4451 5.22346 58.7032 5.15798C59.3711 4.66036 61.8204 5.18417 62.6062 5.15798ZM69.7968 5.36751C68.3429 5.23655 67.4523 5.41989 65.6972 5.36751C66.4045 4.93536 69.1812 4.5294 69.7968 5.36751ZM77.3933 4.94845C75.9264 5.76037 75.1406 5.02703 73.0843 5.15798C73.32 4.71274 76.136 5.06631 77.3933 4.94845ZM72.4687 5.56394C72.4687 5.28893 74.3809 5.21037 74.7214 5.77347C75.8478 5.41989 77.4195 5.98299 79.0305 5.77347C80.1438 6.04847 77.8648 5.98299 77.3933 5.98299C77.0659 6.06156 77.5767 6.33656 77.1838 6.38894C75.5335 6.19251 74.0273 5.85204 72.4687 5.56394ZM95.2453 6.79491C95.4941 6.533 95.3239 6.46752 95.2453 6.17942C94.0796 5.98299 94.0141 6.87347 92.7829 6.58537C93.189 6.20561 92.9008 5.59013 92.1674 5.76037C93.6867 5.4068 95.7823 6.2449 97.7076 6.16632C97.5897 6.36275 97.1313 6.48062 97.498 6.57229C97.4457 6.87348 96.8825 6.63776 96.8825 6.97824C96.8432 6.31038 96.3717 7.18776 95.2453 6.76871V6.79491ZM65.4877 5.98299C66.4438 5.51156 68.2906 5.91752 69.5872 5.77347C68.6311 6.2449 66.7843 5.85204 65.4877 5.98299ZM104.689 6.79491C104.951 7.3711 105.108 6.15323 105.71 6.38894C105.147 8.30087 108.448 6.14013 109.404 6.59847C109.351 6.82109 108.998 6.74252 108.998 7.00443C109.351 7.0699 111.067 7.60681 111.054 6.38894H112.285C111.028 7.81634 109.011 7.50205 106.745 7.61991C106.81 7.89491 107.256 7.79015 107.57 7.82944C107.911 8.36635 106.444 7.73777 105.933 7.82944C106.588 6.66395 102.357 8.31397 101.414 7.21396C101.545 7.01753 101.886 6.45442 101.205 6.59847C101.165 6.2449 101.558 6.06156 101.205 5.98299C101.44 5.43298 102.292 5.9699 102.03 6.59847C102.187 6.45442 103.038 6.08776 102.855 6.808C103.051 6.66395 103.169 6.44133 103.261 6.19252C103.942 6.19252 104.283 6.54609 105.108 6.40204C105.016 6.58538 104.924 6.76872 104.702 6.808L104.689 6.79491ZM114.551 7.21396C114.551 6.86038 114.394 6.67704 114.145 6.59847C114.538 6.07466 114.865 6.7818 115.376 6.38894C115.612 7.03061 115.049 6.88657 114.97 7.21396C115.324 7.61991 117 7.61991 116.607 6.59847C116.882 6.808 117.367 6.7949 117.629 7.00443C117.236 6.24489 117.76 6.49371 118.245 6.17942C120.013 6.71633 121.113 7.43658 123.379 7.81634C123.994 7.67229 124.217 7.13538 124.61 6.79491C125.016 7.03062 127.714 7.3711 125.841 7.41039C129.495 8.40564 131.67 6.93896 134.459 7.41039C134.42 7.68539 133.608 7.79015 134.459 7.81634C134.368 8.27468 133.451 7.89491 133.019 8.02586C133.084 7.75086 133.529 7.85563 133.844 7.81634C133.372 7.22705 132.351 7.81634 132.207 8.2223C130.844 7.84253 129.914 8.60207 128.723 8.62826C127.413 8.66754 126.876 7.9342 125.854 7.80324C122.999 7.44967 119.41 8.24849 116.817 8.01277C116.581 8.19611 116.83 8.47111 116.411 8.83778C115.271 7.79015 112.783 8.07825 110.871 7.81634C110.727 7.26634 111.84 7.96039 111.696 7.41039H111.29C112.193 6.74253 113.791 7.68539 114.577 7.20086L114.551 7.21396ZM104.492 5.98299C105.186 5.51156 106.745 5.90442 107.78 5.77347C107.085 6.2449 105.527 5.85204 104.492 5.98299ZM89.299 6.38894C88.9192 5.9306 90.3861 6.66395 90.9362 6.59847C90.6218 6.89967 90.0325 6.92585 89.4955 7.00443C89.5085 6.71633 89.5347 6.41513 89.2859 6.38894H89.299ZM121.532 6.59847C122.763 6.12704 124.885 6.53299 126.457 6.38894C125.226 6.86038 123.104 6.45442 121.532 6.59847ZM130.15 6.59847C130.844 6.12704 132.403 6.5199 133.438 6.38894C132.744 6.86038 131.185 6.45442 130.15 6.59847ZM134.459 6.59847C134.957 6.17942 135.73 6.59847 136.096 6.59847C135.455 7.05681 135.088 6.58538 134.459 6.59847ZM141.846 7.61991C140.235 7.47586 137.446 7.61991 136.306 7.82944C136.28 6.66395 141.309 6.89966 141.846 7.61991ZM74.7214 7.41039C71.8793 8.02587 70.229 7.3711 67.3344 7.41039C69.3253 7.12229 72.0757 7.13539 74.7214 7.41039ZM144.924 7.21396C145.252 8.02587 144.034 7.29253 144.099 7.82944C143.497 7.52825 144.348 7.00443 144.924 7.21396ZM122.554 9.88541C122.265 9.55803 121.846 9.3616 121.322 9.26993C127.727 8.7985 133.752 9.23064 140.419 9.0604C140.943 9.0604 140.668 9.21755 140.628 9.46636C142.92 9.21755 144.165 9.83303 146.784 9.67588C145.199 10.1473 144.374 9.95089 142.881 9.88541C142.763 10.6188 143.483 10.514 144.112 10.5009C137.354 11.8628 127.164 10.2128 118.651 10.5009C119.738 10.8807 120.628 10.5009 122.135 10.7104C122.004 10.8938 121.886 11.0771 122.135 11.1164C120.681 12.0199 119.122 11.5223 117 11.7319C117.629 12.2688 119.554 11.5092 119.463 12.7533C116.476 12.7402 114.669 12.8188 111.866 12.9628C111.237 12.6485 112.757 12.7795 113.097 12.7533C114.617 12.6354 115.56 12.2688 116.385 11.9283C115.952 11.6664 115.52 11.4307 115.154 11.1033C115.311 10.6449 116.306 11.0247 116.791 10.8938C116.62 10.2521 114.748 11.2997 115.154 10.0687H109.207C109.312 9.9116 109.417 9.74136 109.417 9.45326C108.421 9.49255 107.767 9.17826 106.954 9.04731C108.631 8.85088 110.582 9.33541 112.704 9.04731C112.6 8.39254 110.858 9.38779 111.067 8.43183C113.071 8.39254 115.429 8.44492 115.992 9.25683C114.093 9.92469 112.979 9.13897 111.067 9.66278C113.281 10.2128 115.114 9.63659 117.223 9.66278C117.053 9.36159 116.712 9.21754 116.201 9.25683C118.31 8.65444 120.956 9.28302 122.567 9.87231L122.554 9.88541ZM95.6644 8.64135C95.612 9.00802 95.3108 9.11279 94.8392 9.04731C94.944 9.42707 95.5858 9.23064 95.8609 9.25683C97.6159 9.37469 96.411 9.46636 94.6297 9.46636C94.5904 9.23064 94.2499 9.29612 94.0141 9.25683C94.5249 9.02111 94.8 8.53658 95.6513 8.64135H95.6644ZM105.514 9.46636C105.867 9.93779 107.085 9.54493 107.767 9.67588C106.81 10.3568 103.811 9.54493 102.423 9.88541C101.584 7.89492 108.552 9.70207 105.501 9.47945L105.514 9.46636ZM33.8702 9.67588C34.6954 9.0604 35.7825 9.95088 36.9481 9.67588C37.8126 9.99017 34.3548 9.99017 33.8702 9.67588ZM47.8322 10.9068C48.88 11.6795 50.9101 11.1557 52.7569 11.1164C51.4864 10.1604 53.7392 10.2652 54.8132 10.5009C54.6429 11.0116 53.3856 10.4354 53.176 10.9068C53.6737 11.2997 54.8132 11.0509 55.4288 11.3128C55.5859 12.0069 54.6691 11.6533 54.6036 12.1378C49.1027 12.2688 45.2389 13.0807 39.0045 12.1378C39.1485 11.9676 39.3188 11.5747 39.0045 11.5223C39.5677 10.8021 42.1348 11.1557 42.698 11.1164C42.7111 10.0687 41.087 10.6711 40.4452 10.2914C38.939 9.9116 42.6456 10.0949 43.3135 10.0818C44.3875 10.0557 45.3175 9.97708 45.9854 9.87231C46.4308 9.76755 46.3784 10.1604 46.3915 10.4878H50.9101C51.5781 10.7235 50.36 10.7235 50.085 10.6973C49.5087 10.9461 48.6704 10.9199 47.8322 10.9068ZM24.8329 10.9068C25.5009 10.9068 25.6188 11.4961 26.4701 11.3128C26.4439 12.033 25.5533 11.9021 25.0294 12.1378C25.8807 11.3783 24.7412 11.8759 24.8198 10.9068H24.8329ZM132.822 12.3473C131.761 12.9235 131.198 11.2342 129.744 11.5223C130.189 10.8021 132.207 11.8759 132.822 12.3473ZM34.6954 11.9283C34.643 12.295 32.901 12.1902 32.0235 11.9283C32.3116 10.9985 34.1322 11.7842 34.6954 11.9283ZM128.094 11.9283C128.186 11.6795 128.356 11.5092 128.709 11.5223C130.635 11.7319 130.988 12.033 128.094 11.9283ZM126.247 12.9628C125.697 13.3426 124.361 13.0152 123.575 12.5569C124.505 12.989 125.579 12.1509 126.247 12.9628ZM133.844 13.3688C133.228 13.1723 128.775 13.9712 127.884 12.7533C130.674 12.5831 132.115 12.7271 134.25 12.9628C134.119 13.1462 134.001 13.3295 134.25 13.3688C134.289 13.539 134.171 13.5652 134.04 13.5783C133.673 13.6438 133.621 13.3819 133.831 13.3688H133.844ZM40.2356 15.6212C41.2048 15.5426 41.6502 15.9879 42.698 15.8307C42.5932 16.8521 40.7464 16.0271 40.2356 15.6212ZM39.4105 16.4462C39.5022 15.9878 40.419 16.3676 40.8512 16.2367C40.7988 16.5379 40.2356 16.3152 40.2356 16.6426C43.4707 17.0879 48.2513 16.4986 52.3509 17.0486C48.5264 17.101 42.0955 17.6641 38.1924 17.0486C38.2841 16.6557 40.8119 16.97 39.4236 16.4331L39.4105 16.4462ZM36.9481 18.6986C38.7163 17.6248 42.8027 18.5414 44.7543 18.6986C42.4229 19.0522 39.8558 18.8819 36.9481 18.6986ZM30.1767 18.9081C30.7006 19.2355 31.8139 18.8688 32.6391 19.3141C31.7091 19.4057 30.5565 19.8379 30.1767 18.9081ZM26.6797 21.37C26.3784 22.2736 25.4747 21.37 24.6234 21.5796C24.7936 21.1474 26.2475 21.1867 26.6797 21.37ZM46.1819 21.5796C46.1819 21.776 45.9331 21.7367 45.7759 21.7891C46.6272 22.2081 48.0156 20.9117 48.6443 22.1951C47.0725 21.8284 44.453 22.9546 44.1256 21.7891C43.1171 22.182 43.104 21.8022 41.6633 22.1951C42.0038 21.7891 41.6502 21.9331 41.6633 21.37C43.0123 21.2129 44.453 21.2653 46.1819 21.5796ZM115.167 25.2725C113.975 24.6177 115.363 25.0236 116.201 25.0629C113.883 26.032 110.281 25.2201 107.989 25.2725C108.487 24.9582 108.867 24.8403 107.78 24.8665C109.129 24.0808 111.29 25.6522 113.32 25.076C111.892 24.7486 110.635 24.6439 113.726 24.6701C114.08 24.9975 114.472 25.2986 115.167 25.2856V25.2725ZM100.799 25.2725C100.89 25.0237 101.061 24.8534 101.414 24.8665C103.405 25.1546 103.877 25.1284 101.414 25.482C101.375 25.2463 101.034 25.3118 100.799 25.2725ZM104.283 26.0975V26.713C102.698 26.3463 101.034 26.1499 100.183 26.713C100.956 25.3641 103.248 25.9141 104.283 26.0975ZM109.011 26.0975C109.286 26.7784 111.316 25.7046 111.264 26.713C109.836 26.5427 108.461 26.4118 106.745 26.0975C107.138 25.7308 109.102 25.8618 109.207 25.8879C109.967 26.0189 111.25 25.626 111.67 26.0975H108.998H109.011ZM126.863 26.713C127.033 26.6737 127.059 26.7915 127.072 26.9225C127.295 26.1891 130.268 27.6296 130.766 27.132C130.281 27.6165 127.583 27.1582 126.863 26.7261V26.713ZM128.094 27.7344C129.417 27.3415 130.871 27.0927 132.403 26.9094C132.364 27.1582 132.023 27.0796 131.787 27.1189C132.128 27.7868 132.901 27.3546 133.425 27.1189C134.119 27.1713 135.088 26.9618 135.481 27.3284H137.328C137.983 27.6165 136.607 27.5249 136.306 27.538C132.979 27.4332 131.394 27.8261 128.094 27.7475V27.7344ZM42.8944 28.3499C42.9468 28.0487 43.51 28.2713 43.51 27.9439C43.9553 28.3892 46.4308 27.8784 46.1819 28.3499H42.8944ZM33.4642 28.7558C32.4688 29.0177 30.1767 29.4892 29.5611 28.5463C30.5173 27.8784 30.7792 29.0046 31.8139 28.5463C31.0412 27.4856 32.364 29.2011 33.4511 28.7558H33.4642ZM33.2546 28.3499C34.0536 27.8392 35.6646 28.2582 36.3326 28.5594C36.0575 29.0439 34.7347 28.4677 34.6954 29.1749C33.3332 29.3189 34.2501 28.4153 33.2546 28.3499ZM36.9481 28.7558C37.6292 28.232 39.1092 28.638 39.62 28.9654C39.6986 28.6118 39.4629 28.5725 39.214 28.5594C41.2179 27.9046 44.584 29.3189 46.8106 28.1534C46.9547 29.1225 47.7405 28.5856 48.6573 29.3844C47.2559 29.2796 46.4177 29.7511 44.9638 29.5939C46.2605 30.0654 48.4478 29.6594 50.0981 29.8035C49.7182 30.2487 48.8931 30.2356 48.0418 30.2094C50.4517 30.707 54.0535 29.738 56.6599 30.4189C47.5572 31.1392 41.5716 31.4928 32.4295 31.2439C33.163 30.4713 34.6692 30.4844 35.9134 30.2225C36.3326 30.8511 34.3417 30.838 33.4511 30.838C34.7478 31.3094 36.9351 30.9035 38.5853 31.0475C38.1531 30.5237 37.1577 30.5499 36.3326 30.432C36.9612 30.1046 37.328 29.5154 38.3889 29.607C38.3627 29.3713 38.009 29.4368 37.7733 29.3975C38.7032 29.0177 40.4059 29.6332 41.8728 29.3975C40.157 29.057 38.2448 29.0308 36.9481 28.782V28.7558ZM89.705 29.7904C91.1457 30.3797 92.0233 29.3582 93.8045 29.9999C93.6081 29.9213 90.8576 30.7987 89.705 29.7904ZM126.457 30.6154C121.139 30.4713 112.482 30.8904 106.129 30.6154C104.885 30.563 102.58 30.7201 101.611 30.4058C102.554 30.7201 103.955 29.9868 105.095 29.9999C111.198 30.0523 120.537 29.738 126.444 30.6154H126.457ZM130.556 30.6154C129.181 31.1261 128.343 30.4582 126.863 30.6154C127.308 29.9344 130.098 29.9868 130.556 30.6154ZM60.3534 33.2737C58.2054 34.4261 56.2408 33.0904 53.3725 34.0987C54.5512 34.9106 57.1053 34.3345 58.9127 34.5047C57.066 35.4476 51.6174 34.3083 49.8754 35.3297C43.235 34.8059 34.6561 35.5785 27.2953 34.5047C28.1859 34.3737 29.6135 34.7666 30.1636 34.2952C30.2946 33.4833 29.0372 34.0594 28.5264 33.8892C28.5002 33.1166 29.7314 33.588 29.7576 32.8678C29.6921 32.5928 29.2468 32.6975 28.9325 32.6582C31.9711 32.5273 34.3941 33.6273 37.9698 33.4833C37.5113 32.3701 35.4943 32.8023 34.2763 32.4618C40.6417 31.519 50.1112 32.8285 57.2755 32.2523C57.3017 32.6451 57.9566 32.3963 57.8911 32.8678C58.5329 33.1821 59.4104 33.2737 60.3534 33.2737ZM105.92 32.6582C105.972 32.9856 105.723 33.0118 105.71 33.2737C106.352 32.9987 106.3 33.3261 107.151 33.2737C105.749 33.7059 104.269 33.4178 103.248 33.0642C104.034 32.344 104.806 32.7761 105.92 32.6582ZM114.748 32.6582C113.7 33.4702 112.272 32.6321 110.648 32.8678C111.159 33.994 108.71 33.0511 107.57 32.8678C109.508 32.5142 112.298 32.2392 114.761 32.6582H114.748ZM116.188 32.6582C118.297 32.6452 122.894 32.4094 123.994 33.4833C120.982 33.0773 119.24 33.4571 116.188 32.6582ZM101.82 32.6582C102.357 32.5928 102.698 32.7368 102.645 33.2737C102.108 33.3261 101.768 33.1952 101.82 32.6582ZM129.941 32.6582C134.355 32.488 138.022 33.0642 142.056 33.2737C139.738 33.9547 136.961 33.2344 134.459 33.2737C132.94 33.2999 131.067 34.3476 129.941 32.6582ZM75.1275 32.8678C75.8478 33.5356 73.8308 33.2083 73.2807 33.2737C73.3724 32.3178 74.9834 33.3261 75.1275 32.8678ZM47.2166 35.3297C47.0464 35.7749 46.1557 35.4999 45.9854 35.9452C47.1773 36.5083 49.0372 35.8666 50.085 36.1547C48.3692 36.6131 47.1118 36.2988 45.1603 36.5607C45.4092 36.3381 46.0378 35.3297 44.9507 35.5392C44.5578 35.1333 46.601 35.4214 47.2035 35.3297H47.2166ZM39.2009 36.3511C38.546 36.6654 36.2802 36.8226 35.9134 36.1416C36.6993 35.6178 37.7078 36.3773 39.2009 36.3511ZM29.5611 36.3511C28.9194 35.6309 31.4472 35.9452 31.8139 36.1416C34.4858 36.4428 29.6528 36.2595 29.5611 36.3511ZM52.5473 36.1547C52.639 35.6964 53.5558 36.0761 53.988 35.9452C53.8178 36.3773 52.9009 36.5083 52.5473 36.1547ZM44.9507 36.3511C44.2566 36.8226 42.698 36.4297 41.6633 36.5607C40.55 36.0761 43.7458 36.6654 43.916 36.1547C44.4923 35.9845 44.453 36.4428 44.9376 36.3642L44.9507 36.3511ZM105.514 36.3511C105.802 35.8797 106.941 36.2726 107.57 36.1416C107.282 36.613 106.142 36.2202 105.514 36.3511ZM100.799 37.1762C101.087 36.7047 102.226 37.0976 102.855 36.9666C102.567 37.4381 101.427 37.0452 100.799 37.1762ZM77.1838 37.5821C76.2539 38.0143 74.5119 37.6476 73.4903 37.9881V37.3726C74.3285 37.1107 75.8347 37.3333 77.1838 37.5821ZM82.724 37.3857C83.7194 37.1107 84.8327 37.4119 86.208 37.1762C85.6448 37.8309 83.3527 38.0535 82.724 37.3857ZM153.346 38.6166C152.337 38.9047 150.949 38.8131 149.652 38.8262C150.386 38.3678 152.77 37.3071 153.346 38.6166ZM140.419 9.88541C137.341 9.6366 142.187 9.88541 140.419 10.5009C140.969 10.3699 142.043 10.7628 142.265 10.2914C142.03 10.2652 141.676 10.3307 141.65 10.0818C141.886 10.0426 141.964 9.85922 142.056 9.67588C141.113 9.51874 141.466 9.89851 141.231 10.0818C141.074 9.49255 140.458 9.88541 140.406 9.87231L140.419 9.88541ZM7.38701 18.5022C7.66206 18.4105 8.53959 18.3843 9.0242 18.5022C9.0242 17.8474 6.9155 18.0962 7.38701 18.5022ZM37.7733 24.251C35.2062 24.251 37.603 24.7486 39.214 24.4605C39.5677 24.3951 39.1878 24.251 39.214 24.251C38.6377 24.1594 38.14 24.251 37.7733 24.251ZM2.25278 31.4273C1.54551 31.5844 0.301243 31.2047 0.196463 31.4273C0.759657 31.532 2.09561 32.1606 2.25278 31.4273ZM14.774 24.8665C14.774 24.7355 14.8002 24.6177 14.9836 24.657C14.499 25.9141 16.791 25.5475 17.2364 25.6784C16.9875 25.6391 17.1054 25.4558 17.2364 25.2725C16.9351 25.1546 16.1755 25.5082 16.2147 25.0629C16.647 25.1284 17.996 25.0891 17.2364 24.657C15.9528 25.2987 14.9181 23.9629 14.774 24.8665Z" fill="#F3A20F"/>
</svg>
